<svg width="55" height="36" viewBox="0 0 55 36" fill="none" xmlns="http://www.w3.org/2000/svg">
    <path d="M25.6491 0.0839119C25.6127 0.133244 25.2122 0.788639 24.7679 1.5427C24.0251 2.79711 23.9596 2.93806 23.9596 3.26928C23.9596 3.51593 24.1271 4.13609 24.5058 5.29889L25.0447 6.96205L24.9063 7.44831C24.8335 7.70905 24.3601 9.34402 23.8576 11.0706C23.3478 12.7972 22.94 14.3123 22.94 14.4321C22.94 14.566 23.1002 14.9748 23.3333 15.4188C23.6319 15.9966 23.7338 16.2785 23.7702 16.6309C23.7994 16.8846 23.843 17.1453 23.8649 17.2158C23.8867 17.3074 23.7265 17.2299 23.2969 16.9551C22.5613 16.4759 22.3647 16.4547 22.0224 16.8141C21.884 16.948 21.7748 17.089 21.7748 17.1172C21.7748 17.1453 21.702 17.2017 21.6146 17.244C21.4981 17.2933 21.1267 17.2581 20.2819 17.1172C18.4394 16.8141 18.4758 16.8141 16.9173 17.0749C16.1527 17.2017 15.4608 17.2863 15.3807 17.2581C15.3006 17.2299 15.1695 17.096 15.0821 16.9621C14.8855 16.652 14.5505 16.5111 14.2738 16.6098C14.1645 16.652 12.9411 17.4343 11.5574 18.3504C9.71491 19.5696 9.00122 20.0841 8.87742 20.2673C8.72449 20.5139 8.72449 20.5421 8.77547 22.3462C8.8046 23.354 8.79731 24.1715 8.76818 24.1715C8.73177 24.1715 8.54242 24.1221 8.3458 24.0658C7.74134 23.8896 7.28983 23.9319 5.86245 24.3124C5.13419 24.5097 4.44963 24.6648 4.3404 24.6648C4.19475 24.6648 3.89616 24.4322 3.05867 23.6782C1.93716 22.6563 1.75509 22.5576 1.5002 22.8043C1.39825 22.8959 1.38368 23.213 1.38368 25.2074V27.4978L0.691842 29.0552C0.313149 29.915 0 30.6902 0 30.7818C0 31.0989 0.240324 31.3667 1.79879 32.7973L3.38638 34.2491H4.05638H4.71909L5.65125 34.9608C7.50102 36.3703 7.70493 36.3632 9.6785 34.834L10.4286 34.2491H11.1059H11.7759L13.3343 32.8255C14.1937 32.0433 14.9511 31.3244 15.0166 31.2258C15.1768 31.0003 15.1841 30.662 15.0312 30.3167C14.7617 29.7036 14.7472 29.7036 15.4608 30.1898C15.825 30.4435 16.5022 30.8946 16.9538 31.1976L17.784 31.7473L18.3447 31.7684C18.738 31.7896 18.9856 31.7614 19.1749 31.6839C19.4444 31.5781 22.4448 29.5838 22.7798 29.2878C23.0565 29.0482 23.1366 28.8438 23.7848 26.7226C24.1198 25.6091 24.4184 24.6507 24.4402 24.5943C24.4621 24.5309 24.564 24.7493 24.6805 25.1017C24.8845 25.743 25.0447 25.9826 25.2923 26.0179C25.4161 26.039 25.4671 26.1518 25.62 26.779C25.7875 27.4837 25.7875 27.5612 25.7147 28.4139C25.6127 29.4569 25.5253 29.1821 26.7197 31.6416C27.4479 33.1356 27.7174 33.5373 28.0232 33.5514C28.0888 33.5514 29.0501 33.5655 30.1497 33.5725C31.9485 33.5866 32.1816 33.5796 32.451 33.4598C32.8079 33.3047 32.8079 33.3047 33.8638 31.113L34.6795 29.4217L34.6139 28.5055C34.5484 27.6528 34.5557 27.533 34.7232 26.779C34.8178 26.335 34.9198 25.9474 34.9489 25.9192C34.9708 25.891 35.5898 27.3568 36.3253 29.168C37.6289 32.3956 37.6508 32.4732 37.6071 32.8537C37.5634 33.2413 37.5634 33.2554 38.0877 34.1786C38.379 34.686 38.6849 35.1441 38.7723 35.2004C38.8524 35.2498 39.0708 35.3132 39.2529 35.3414C39.4641 35.3766 39.7117 35.4964 39.9739 35.6867L40.3671 35.9756H41.7654H43.1636L43.5569 35.6867C43.8191 35.4964 44.0667 35.3766 44.2779 35.3414C44.4599 35.3132 44.6784 35.2498 44.7585 35.2004C44.8459 35.1441 45.1518 34.686 45.4431 34.1715C45.9164 33.3259 45.9601 33.2131 45.9237 32.9524C45.9019 32.7973 45.88 32.6141 45.8727 32.5577C45.8727 32.5013 46.5937 30.662 47.4822 28.4703C49.3247 23.9319 49.2518 24.1997 48.9096 22.8184C48.8076 22.4026 48.7202 22.0291 48.7202 21.9939C48.7202 21.9586 49.2883 22.1137 49.9874 22.3462C51.1526 22.7338 51.2691 22.762 51.473 22.6775C51.7352 22.5647 54.153 20.1404 54.3059 19.8304C54.4516 19.5414 54.386 19.1679 54.153 18.9424C54.051 18.8508 53.7816 18.7028 53.5485 18.6041C53.3155 18.5125 53.0169 18.3927 52.8858 18.3434L52.6382 18.2447L53.0388 17.9699C53.8034 17.4343 54.4006 16.4336 54.6482 15.2778C54.7939 14.6083 54.7939 14.552 54.6482 14.4181C54.4589 14.2278 54.3423 14.2912 54.0219 14.7422C53.432 15.5949 52.7038 16.1376 51.6551 16.504C51.2982 16.6238 51.0142 16.652 49.798 16.6873L48.3707 16.7155L48.1595 16.504C48.0357 16.3701 47.169 15.898 45.9164 15.2778L43.8773 14.2701H41.7654H39.6535L38.328 14.9184C37.5925 15.2778 36.9808 15.5738 36.9589 15.5738C36.9443 15.5738 37.039 15.3483 37.1774 15.0664C37.3158 14.7845 37.4323 14.5097 37.4323 14.4462C37.4323 14.3899 37.0099 12.8958 36.4928 11.134C35.9831 9.37221 35.5024 7.70201 35.4296 7.43421L35.2985 6.9409L35.852 5.22137C36.1651 4.27704 36.4127 3.41022 36.4127 3.28337C36.4127 3.16357 36.3472 2.93806 36.2744 2.78302C36.0923 2.39542 34.8251 0.274189 34.6868 0.119148C34.5484 -0.0217972 34.2352 -0.0358925 34.0677 0.0839119C33.8784 0.224857 33.2375 2.5575 32.837 4.53778C32.6404 5.51031 32.4801 6.3137 32.4801 6.32779C32.4801 6.33484 32.1306 6.1657 31.7009 5.94724L30.9217 5.55259L30.0769 5.58078L29.2394 5.60897L28.5549 5.98248C28.1834 6.1798 27.8703 6.34189 27.863 6.32779C27.8557 6.3137 27.6955 5.53145 27.5062 4.58007C27.1275 2.72664 26.4866 0.323521 26.3045 0.119148C26.1735 -0.0217972 25.7584 -0.0429382 25.6491 0.0839119ZM26.29 1.72593L26.5958 2.78302L26.5085 4.79149C26.4648 5.89791 26.4138 6.87748 26.3919 6.97614C26.3701 7.10299 26.239 7.21575 25.9113 7.38488C25.671 7.51173 25.4598 7.61039 25.4525 7.5963C25.4379 7.5822 25.4671 7.41307 25.5035 7.22279C25.5763 6.89157 25.5472 6.78586 25.0228 5.17204C24.717 4.23475 24.4693 3.37498 24.4693 3.26223C24.4693 3.14948 24.615 2.81121 24.8043 2.50113C25.7147 0.985962 25.9404 0.626553 25.9623 0.647694C25.9696 0.654739 26.1225 1.141 26.29 1.72593ZM35.1019 1.78935C35.4733 2.40246 35.801 3.00853 35.8374 3.12833C35.8957 3.31156 35.8083 3.63573 35.3495 5.06633C34.8397 6.64492 34.796 6.8211 34.8397 7.20165L34.8834 7.61744L34.4392 7.39193C34.1915 7.26508 33.9804 7.12413 33.9658 7.0889C33.9512 7.04661 33.893 6.07409 33.8274 4.93243L33.7182 2.85349L34.0168 1.83163C34.3663 0.619503 34.3663 0.605412 34.4027 0.640648C34.4173 0.654739 34.7305 1.16919 35.1019 1.78935ZM27.346 6.46169C27.3751 6.58854 27.3314 6.64492 27.1566 6.73653L26.9236 6.84929L26.9673 6.20094C26.9964 5.84153 27.0182 5.43279 27.0255 5.29184C27.0328 5.11566 27.0765 5.23546 27.1712 5.6724C27.244 6.01771 27.3241 6.37712 27.346 6.46169ZM33.354 6.03181C33.354 6.4335 33.3249 6.76472 33.2958 6.76472C33.2594 6.76472 33.1793 6.72244 33.1064 6.67311C32.9754 6.58149 32.9754 6.5533 33.0992 5.89791C33.172 5.5244 33.2594 5.23546 33.2958 5.25661C33.3249 5.27775 33.354 5.62306 33.354 6.03181ZM32.9826 7.20165C34.1187 7.80067 35.08 8.34331 35.1164 8.41378C35.2257 8.60406 36.8497 14.2207 36.8497 14.411C36.8497 14.5097 36.6822 14.9114 36.4783 15.3131L36.0996 16.0319L35.7136 18.9917C35.3422 21.86 35.3058 22.0361 34.6649 24.7353C34.1333 26.941 34.0022 27.5894 34.0386 27.8501C34.0605 28.0404 34.0605 28.1884 34.0459 28.1884C34.0313 28.1884 33.8347 27.9488 33.6162 27.6528C33.2448 27.1595 33.2084 27.082 33.2084 26.7508C33.2157 26.5534 33.4706 23.798 33.7764 20.6337C34.41 14.2066 34.3299 14.6365 34.9562 14.3194C35.1674 14.2207 35.4077 14.1644 35.6553 14.1644C35.8665 14.1644 36.085 14.1432 36.1505 14.1221C36.2816 14.0727 36.3108 13.7768 36.187 13.7063C36.0413 13.6147 35.2548 13.6569 34.8907 13.7768C34.4756 13.9106 33.9075 14.4462 33.8347 14.7704C33.8129 14.8832 33.5288 17.688 33.2084 21.0002C32.8006 25.1651 32.6404 27.0749 32.6913 27.2018C32.7278 27.3075 33.0773 27.8079 33.4633 28.3223L34.177 29.2526L33.3176 31.0285C32.8516 32.008 32.4073 32.8608 32.3345 32.9383C32.218 33.051 32.1015 33.0651 31.3077 33.044C30.157 33.0228 30.1497 33.0228 29.0355 33.051C28.3072 33.0651 28.0815 33.051 28.0014 32.9735C27.8776 32.8467 26.2172 29.4076 26.2172 29.2807C26.2172 29.2244 26.5449 28.7522 26.9454 28.2236C27.7756 27.1243 27.7392 27.2723 27.5936 25.7853L27.5062 24.9396L27.7683 24.7071C27.914 24.5802 28.0524 24.3829 28.0742 24.2701C28.1033 24.1574 28.1325 24.0235 28.147 23.9812C28.1689 23.9319 28.1834 23.1073 28.1907 22.156C28.198 20.2039 28.2126 20.2673 27.6227 19.8374C26.8726 19.2948 26.9818 19.633 26.7269 17.0255C26.4939 14.566 26.472 14.4956 26.0569 14.115C25.9623 14.0305 25.7292 13.8895 25.5399 13.812C24.848 13.516 23.843 13.6499 24.0761 14.0093C24.1343 14.1009 24.2946 14.1362 24.6951 14.1644C25.3068 14.2066 25.7147 14.3969 25.8894 14.7211C25.9841 14.9114 26.3992 18.6182 26.3482 18.8578C26.3337 18.9354 26.0861 18.8085 25.4525 18.3857C24.9718 18.0685 24.5495 17.7866 24.5203 17.7585C24.4839 17.7303 24.4111 17.3427 24.3528 16.9057C24.2582 16.1728 24.2145 16.0319 23.8358 15.2778L23.4207 14.4533L24.28 11.5075C24.7534 9.88666 25.183 8.49835 25.234 8.41378C25.3141 8.29398 28.8389 6.37712 29.436 6.13047C29.5234 6.09523 29.9021 6.07409 30.259 6.08114L30.9144 6.10933L32.9826 7.20165ZM45.7489 15.7923C46.8632 16.3349 47.8026 16.8353 47.839 16.8987C47.8754 16.9621 47.941 18.0474 47.992 19.3089C48.0721 21.5217 48.0866 21.6345 48.3342 22.6915C48.5017 23.4315 48.5746 23.8966 48.56 24.1362C48.5382 24.3758 48.0794 25.6021 47.0889 28.0475C46.2951 29.9996 45.6251 31.6627 45.596 31.7402C45.5232 31.9305 44.4235 29.2737 44.3725 28.7874C44.3507 28.5196 44.4891 27.7515 44.926 25.6866C45.5523 22.762 45.6033 22.5858 45.8218 22.2194C45.982 21.9586 46.4918 21.6345 46.7467 21.6345C47.0015 21.6345 47.1909 21.5006 47.1909 21.3244C47.1909 21.1059 47.0525 21.0636 46.601 21.1411C45.982 21.2539 45.5377 21.6133 45.1882 22.2617C45.1226 22.3956 44.7876 23.805 44.4454 25.3977C43.9356 27.8008 43.8336 28.3787 43.8555 28.8015L43.8773 29.316H41.7581H39.6389L39.668 28.8015C39.6971 28.3646 39.6098 27.8783 39.0708 25.3695C38.43 22.3603 38.3717 22.1841 37.9056 21.6485C37.5561 21.2398 36.6166 20.9579 36.3836 21.1834C36.1651 21.3878 36.2816 21.5428 36.7186 21.6204C37.2575 21.719 37.5415 21.9375 37.7891 22.4308C38.0586 22.9805 39.2092 28.3223 39.1582 28.8015C39.1291 29.0411 38.0222 31.8882 37.9785 31.8319C37.9639 31.8248 37.3303 30.2603 36.5657 28.3575L35.1674 24.8973L35.5243 23.3892C35.8156 22.163 35.9539 21.3596 36.2379 19.1256L36.5875 16.3772L38.1605 15.5949L39.7263 14.8127L41.729 14.8057L43.7317 14.7986L45.7489 15.7923ZM53.7379 16.3279C53.4612 16.8916 52.7839 17.5823 52.2814 17.8148L51.9537 17.9699L51.4876 17.7866C51.1672 17.6598 50.956 17.6175 50.803 17.6457C50.6792 17.6739 50.1258 17.8994 49.5723 18.1531C49.0188 18.4068 48.5527 18.6041 48.5454 18.5971C48.5309 18.583 48.5017 18.2588 48.4726 17.8783L48.4289 17.1947H49.6888C50.7084 17.1947 51.0652 17.1665 51.5167 17.0537C52.2086 16.8846 53.0825 16.4477 53.5631 16.0389C53.767 15.8698 53.9345 15.757 53.9491 15.7923C53.9636 15.8205 53.869 16.0671 53.7379 16.3279ZM13.1814 20.4505L12.2201 23.5725L11.6302 24.1151C11.2224 24.4886 10.9748 24.6577 10.851 24.6577C10.6762 24.6648 10.4796 24.6225 9.71491 24.4181L9.3435 24.3124L9.30709 22.5013C9.28524 21.4583 9.29981 20.6267 9.33622 20.5421C9.39448 20.4153 14.0553 17.2581 14.1209 17.3074C14.1281 17.3145 13.713 18.731 13.1814 20.4505ZM25.2631 18.879C26.5085 19.7035 27.5717 20.4505 27.6154 20.528C27.6737 20.6337 27.681 21.1834 27.6518 22.4026C27.6008 24.0799 27.5936 24.1362 27.4406 24.2842C27.2658 24.4393 25.4088 25.5316 25.3797 25.4964C25.3433 25.447 25.001 24.3899 23.9596 21.0354C23.3551 19.0974 22.8453 17.4554 22.8235 17.3779C22.7652 17.2158 22.554 17.0819 25.2631 18.879ZM14.8928 17.5752C15.1841 17.843 15.4463 17.843 16.8081 17.6175C17.5072 17.4977 18.2573 17.4061 18.4904 17.4061C18.7161 17.4061 19.4735 17.5048 20.1654 17.6175C20.8863 17.7444 21.5272 17.8148 21.6437 17.7937C21.7602 17.7655 21.9496 17.6668 22.0661 17.5752L22.2773 17.399L22.3428 17.6316C22.3793 17.7585 22.8089 19.1468 23.3041 20.7183L24.1853 23.5654L23.4716 25.9121C23.0784 27.2018 22.7361 28.2166 22.7143 28.1673C22.5395 27.8642 20.6096 22.9452 20.6096 22.8043C20.6096 22.6986 20.6679 22.5929 20.748 22.5506C20.93 22.459 21.5927 22.459 21.9205 22.5506C22.3137 22.6634 22.5686 22.5154 22.4594 22.2335C22.3501 21.9657 20.8791 21.8459 20.5149 22.0784C20.2309 22.2546 20.0634 22.5365 20.0707 22.8325C20.078 22.9875 20.5513 24.249 21.2286 25.9403C21.8622 27.5048 22.3793 28.8227 22.3865 28.872C22.3938 28.9143 21.8768 29.3019 21.2432 29.7318L20.0925 30.514L19.5318 30.2955C18.8035 30.0207 18.6724 29.8939 18.7598 29.5838C18.8108 29.4076 18.9565 29.2666 19.3716 28.9918C19.9979 28.569 20.2455 28.2096 20.2455 27.7092C20.2455 27.3427 20.078 26.9692 19.8595 26.8283C19.5463 26.631 18.8181 26.4125 18.4831 26.4125C18.017 26.4125 17.165 26.7367 16.9319 27.0045C16.779 27.1807 16.7499 27.2793 16.7499 27.681C16.7499 28.2518 16.8955 28.5126 17.3834 28.8438C18.0461 29.2807 18.2064 29.4569 18.2064 29.7036C18.2064 29.8304 18.1627 29.9643 18.119 29.9996C17.9223 30.1405 16.8737 30.507 16.7935 30.4647C16.7499 30.4365 16.2255 30.0841 15.6211 29.6754C15.0239 29.2737 14.5214 28.9354 14.5141 28.9284C14.5068 28.9284 15.0239 27.6246 15.6648 26.039C16.9829 22.7902 17.0193 22.6422 16.626 22.2617C16.4804 22.1137 16.291 22.0221 16.058 21.9798C15.4681 21.8741 14.4194 22.0996 14.4194 22.3392C14.4194 22.4731 14.6598 22.6281 14.8127 22.5858C14.9001 22.5576 15.1987 22.5224 15.4827 22.5013C16.0944 22.459 16.3129 22.5365 16.3129 22.8113C16.3129 22.9171 15.8323 24.1997 15.2424 25.6655L14.1645 28.3364L13.9825 27.9629C13.8004 27.5964 13.8004 27.5683 13.764 25.2286C13.7422 23.9319 13.6985 22.8254 13.6621 22.7691C13.6184 22.7056 13.5091 22.6845 13.3125 22.7127C13.1086 22.7409 13.0358 22.7268 13.0576 22.6704C13.0722 22.6211 13.4436 21.423 13.8732 19.9924C14.3102 18.5689 14.6743 17.4061 14.6889 17.4061C14.6962 17.4061 14.7908 17.4836 14.8928 17.5752ZM52.3979 18.7028C53.8107 19.2666 53.9928 19.3934 53.7962 19.6753C53.7306 19.7669 53.148 20.373 52.4853 21.0354L51.291 22.2335L49.951 21.7895C49.2227 21.5499 48.611 21.3385 48.6037 21.3314C48.5964 21.3244 48.5746 20.8452 48.56 20.2673L48.5236 19.2172L49.6961 18.6676C50.3442 18.3645 50.9195 18.132 50.9778 18.1531C51.0361 18.1672 51.6769 18.4139 52.3979 18.7028ZM2.9203 24.256L3.85975 25.1158L2.93487 26.0179L2.0027 26.9199L1.959 26.2716C1.89346 25.4188 1.8789 23.3963 1.93716 23.3963C1.959 23.3963 2.40324 23.7839 2.9203 24.256ZM13.2542 25.2074V27.0256L12.2784 26.0813L11.2952 25.1299L12.2201 24.2701C12.7299 23.7909 13.1668 23.4033 13.2033 23.3963C13.2324 23.3963 13.2542 24.2138 13.2542 25.2074ZM9.16144 24.8057L10.5087 25.1651L11.4991 26.0742C13.3926 27.8079 13.2979 27.681 14.0116 29.3019C14.3539 30.0912 14.6379 30.7818 14.6379 30.8311C14.6379 30.8805 13.9388 31.5641 13.094 32.3393L11.5428 33.7558H10.8728H10.2101L9.60568 34.2279C9.02307 34.6789 9.00122 34.693 8.78275 34.6085C8.65895 34.5591 8.40406 34.4675 8.21471 34.4112L7.86515 34.3054V33.7558C7.86515 33.4527 7.89428 33.1779 7.93797 33.1567C8.04721 33.0863 8.44775 32.5084 8.56427 32.2406C8.65895 32.0151 8.65895 31.9869 8.52058 31.853C8.39677 31.7332 8.28025 31.712 7.60298 31.712C6.75092 31.712 6.55429 31.7755 6.55429 32.0362C6.55429 32.2617 6.64168 32.4238 6.99852 32.8819C7.26798 33.2272 7.28254 33.2624 7.28254 33.7698V34.2984L6.73635 34.4887C6.43049 34.5944 6.14647 34.6578 6.09549 34.6226C6.05179 34.5944 5.76777 34.39 5.47647 34.1645L4.94485 33.7558H4.27485L3.60486 33.7487L2.1265 32.3956C1.31086 31.6486 0.611734 30.9862 0.575321 30.9157C0.517061 30.8241 0.648146 30.4506 1.13608 29.3442L1.77694 27.8995L3.18247 26.5464L4.59529 25.1933L5.92071 24.8339C6.64896 24.6295 7.36993 24.4675 7.52287 24.4604C7.6758 24.4534 8.41134 24.6154 9.16144 24.8057ZM27.0911 26.1024C27.1857 27.0961 27.2003 27.0397 26.6395 27.7585L26.29 28.2096V27.7444C26.29 27.4907 26.2099 26.9551 26.1152 26.5605C26.0132 26.1588 25.9477 25.8205 25.9623 25.7994C26.0205 25.743 26.909 25.2356 26.9527 25.2286C26.9818 25.2286 27.0401 25.6232 27.0911 26.1024ZM19.2623 27.1384C19.6265 27.3075 19.6265 27.3075 19.6483 27.6881C19.6774 28.132 19.6265 28.1955 18.9492 28.6535L18.4904 28.9636L17.9515 28.6112C17.3325 28.2096 17.2596 28.1109 17.2596 27.674C17.2596 27.3146 17.3033 27.2652 17.8058 27.0679C18.2719 26.8847 18.7817 26.9129 19.2623 27.1384ZM44.8022 31.4654C45.1518 32.3181 45.4431 33.0299 45.4431 33.051C45.4431 33.1145 44.6129 34.5732 44.5109 34.693C44.3288 34.9045 43.8773 34.9045 42.7922 34.7001L41.7508 34.5098L40.7458 34.7001C39.7845 34.8833 39.282 34.9045 39.0708 34.7565C38.9835 34.7001 38.0877 33.1497 38.0877 33.0651C38.0877 33.0228 38.9543 30.9016 39.2966 30.1053L39.3913 29.8798L41.7727 29.8939L44.1613 29.915L44.8022 31.4654ZM19.1895 30.7325C19.5391 30.8734 19.5463 30.8805 19.408 30.9862C18.9492 31.3244 18.2792 31.3879 17.8131 31.1271C17.6529 31.0426 17.5145 30.9368 17.5 30.9016C17.4854 30.8593 17.6383 30.7677 17.8349 30.6972C18.0316 30.6338 18.2501 30.5352 18.3229 30.4788C18.4394 30.4013 18.4904 30.4013 18.6433 30.4858C18.7453 30.5422 18.9929 30.6479 19.1895 30.7325ZM7.89428 32.3604C7.80689 32.5154 7.62482 32.6987 7.56656 32.6987C7.53743 32.6987 7.44276 32.6 7.35537 32.4872L7.20244 32.2758H7.57385C7.85058 32.2758 7.93069 32.297 7.89428 32.3604ZM8.29482 34.9749L8.54242 35.0736L8.20014 35.2709C7.77047 35.5105 7.40635 35.5246 6.99852 35.3062C6.83831 35.2145 6.69994 35.1159 6.69994 35.0877C6.69994 35.0595 6.83831 34.989 7.01309 34.9256C7.36265 34.7987 7.92341 34.8199 8.29482 34.9749ZM42.4572 35.1511C42.7995 35.2216 43.069 35.3062 43.0617 35.3414C43.0398 35.4189 40.7822 35.4753 40.4982 35.4119C40.2433 35.3484 40.3453 35.2991 41.0153 35.1652C41.7727 35.0102 41.7217 35.0102 42.4572 35.1511Z" fill="#132F55"/>
    <path d="M27.3829 28.8933C27.2081 28.9991 27.2445 29.8236 27.4412 30.3451C27.6305 30.8313 28.1767 31.5361 28.4462 31.6559C28.6428 31.7404 28.8394 31.677 28.8977 31.5149C28.9122 31.4726 28.7593 31.2612 28.5554 31.0569C28.0529 30.5424 27.8199 30.0421 27.8199 29.4501C27.8199 28.8863 27.6815 28.7101 27.3829 28.8933Z" fill="#132F55"/>
    <path d="M32.5902 28.9081C32.5757 28.9574 32.5538 29.2111 32.532 29.4648C32.4883 30.0638 32.2334 30.6065 31.7892 31.0716C31.425 31.4522 31.3813 31.6636 31.6726 31.6988C31.9931 31.7481 32.6267 31.0152 32.9107 30.2823C33.0782 29.8313 33.1219 29.049 32.9762 28.9081C32.8597 28.7953 32.6267 28.8024 32.5902 28.9081Z" fill="#132F55"/>
    <path d="M3.15281 29.6261C2.70858 29.8234 2.91249 30.1617 3.43683 30.0983C4.13596 29.9996 5.00986 30.2251 5.43953 30.5986C5.65801 30.7959 5.86192 30.7396 5.86192 30.4788C5.86192 30.2181 5.40312 29.8586 4.85693 29.7036C4.28889 29.5415 3.43683 29.4992 3.15281 29.6261Z" fill="#132F55"/>
    <path d="M10.5735 29.6331C9.80159 29.8023 9.19714 30.2322 9.26268 30.5634C9.29909 30.7466 9.59768 30.7678 9.76518 30.5916C10.1147 30.2322 10.9959 29.9996 11.6878 30.0912C11.848 30.1124 12.0373 30.1053 12.1102 30.0771C12.2631 29.9996 12.2704 29.7882 12.1247 29.6684C11.9572 29.5345 11.0979 29.5133 10.5735 29.6331Z" fill="#132F55"/>
    <path d="M39.5596 30.8097C39.4067 30.9577 39.4649 31.0775 39.88 31.5003L40.2879 31.9161L39.8728 32.797C39.647 33.2833 39.4722 33.7343 39.4868 33.8048C39.5013 33.8894 39.5742 33.9316 39.7198 33.9316C39.9165 33.9316 39.9529 33.8823 40.3534 33.0225C40.5937 32.5222 40.7831 32.0359 40.7831 31.9443C40.7831 31.6836 40.6156 31.4228 40.2078 31.0564C39.8291 30.711 39.7053 30.6688 39.5596 30.8097Z" fill="#132F55"/>
    <path d="M43.3241 31.0564C42.9018 31.4369 42.7488 31.6906 42.7561 31.9725C42.7561 32.0782 42.9455 32.5645 43.1785 33.0507C43.579 33.8823 43.6154 33.9316 43.8121 33.9316C43.9504 33.9316 44.0306 33.8894 44.0451 33.8048C44.0597 33.7414 43.8849 33.2903 43.6519 32.8041L43.2368 31.9232L43.6519 31.5074C44.067 31.0775 44.1252 30.9577 43.9723 30.8097C43.8266 30.6688 43.7028 30.711 43.3241 31.0564Z" fill="#132F55"/>
</svg>
