<svg width="210" height="158" viewBox="0 0 210 158" fill="none" xmlns="http://www.w3.org/2000/svg">
    <path d="M99.3124 0.478806C99.1887 0.646378 97.8281 2.87263 96.3192 5.43401C93.796 9.69499 93.5733 10.1738 93.5733 11.2989C93.5733 12.1367 94.1423 14.2432 95.4286 18.193L97.2592 23.8424L96.7892 25.4942C96.5418 26.3799 94.9339 31.9335 93.227 37.7984C91.4954 43.6632 90.1101 48.8099 90.1101 49.2169C90.1101 49.6717 90.6543 51.0601 91.4459 52.5682C92.4601 54.5311 92.8065 55.4887 92.9302 56.6856C93.0291 57.5473 93.1775 58.4331 93.2517 58.6724C93.326 58.9836 92.7817 58.7203 91.3222 57.7867C88.8238 56.1589 88.1558 56.0871 86.9932 57.308C86.5232 57.7628 86.1521 58.2415 86.1521 58.3373C86.1521 58.4331 85.9047 58.6246 85.6079 58.7682C85.2121 58.9358 83.9505 58.8161 81.081 58.3373C74.8224 57.308 74.9461 57.308 69.6523 58.1937C67.0549 58.6246 64.7049 58.9118 64.4327 58.8161C64.1606 58.7203 63.7154 58.2655 63.4185 57.8107C62.7506 56.7574 61.6127 56.2786 60.6727 56.6138C60.3016 56.7574 56.1457 59.4145 51.4456 62.5265C45.1871 66.6678 42.7628 68.4153 42.3423 69.0377C41.8228 69.8755 41.8228 69.9712 41.996 76.0994C42.0949 79.5226 42.0702 82.2994 41.9712 82.2994C41.8476 82.2994 41.2044 82.1318 40.5365 81.9403C38.4833 81.3419 36.9496 81.4855 32.1011 82.7781C29.6273 83.4484 27.302 83.9751 26.931 83.9751C26.4362 83.9751 25.422 83.1851 22.5772 80.6237C18.7676 77.1527 18.1492 76.8176 17.2834 77.6554C16.9371 77.9666 16.8876 79.0438 16.8876 85.8183V93.5982L14.5375 98.8885C13.2512 101.809 12.1875 104.442 12.1875 104.753C12.1875 105.831 13.0038 106.74 18.2976 111.6L23.6904 116.531H25.9662H28.2173L31.3837 118.949C37.667 123.736 38.3596 123.712 45.0634 118.518L47.6114 116.531H49.9119H52.1878L57.4816 111.695C60.4006 109.038 62.9732 106.597 63.1959 106.261C63.7401 105.495 63.7648 104.346 63.2454 103.173C62.3301 101.091 62.2806 101.091 64.7049 102.743C65.9417 103.604 68.2423 105.136 69.776 106.166L72.5961 108.033L74.5008 108.105C75.8367 108.177 76.6777 108.081 77.3209 107.817C78.2362 107.458 88.428 100.684 89.5659 99.6785C90.5059 98.8646 90.778 98.1704 92.9796 90.965C94.1175 87.1828 95.1318 83.9272 95.206 83.7357C95.2802 83.5202 95.6265 84.2623 96.0223 85.4592C96.715 87.6376 97.2592 88.4515 98.1003 88.5712C98.5208 88.643 98.6939 89.026 99.2134 91.1565C99.7824 93.5503 99.7824 93.8136 99.535 96.7102C99.1887 100.253 98.8918 99.3194 102.949 107.674C105.423 112.749 106.338 114.113 107.377 114.161C107.599 114.161 110.865 114.209 114.6 114.233C120.71 114.281 121.502 114.257 122.417 113.85C123.629 113.323 123.629 113.323 127.216 105.878L129.987 100.133L129.764 97.0213C129.541 94.1248 129.566 93.7179 130.135 91.1565C130.457 89.6484 130.803 88.3318 130.902 88.236C130.976 88.1403 133.079 93.1194 135.577 99.2715C140.005 110.235 140.08 110.499 139.931 111.791C139.783 113.108 139.783 113.156 141.564 116.292C142.553 118.015 143.592 119.571 143.889 119.763C144.161 119.93 144.903 120.146 145.522 120.241C146.239 120.361 147.08 120.768 147.971 121.414L149.307 122.396H154.056H158.806L160.141 121.414C161.032 120.768 161.873 120.361 162.59 120.241C163.209 120.146 163.951 119.93 164.223 119.763C164.52 119.571 165.559 118.015 166.548 116.268C168.156 113.395 168.305 113.012 168.181 112.126C168.107 111.6 168.033 110.977 168.008 110.786C168.008 110.594 170.457 104.346 173.475 96.9017C179.733 81.4855 179.486 82.3951 178.323 77.7033C177.977 76.2909 177.68 75.0222 177.68 74.9025C177.68 74.7828 179.61 75.3094 181.985 76.0994C185.943 77.416 186.338 77.5118 187.031 77.2245C187.922 76.8415 196.134 68.6068 196.654 67.5535C197.149 66.572 196.926 65.3033 196.134 64.5373C195.788 64.2261 194.873 63.7234 194.081 63.3882C193.29 63.0771 192.275 62.6701 191.83 62.5025L190.989 62.1674L192.349 61.2338C194.947 59.4145 196.975 56.0153 197.816 52.0894C198.311 49.8153 198.311 49.6238 197.816 49.169C197.173 48.5227 196.777 48.7381 195.689 50.2701C193.685 53.1667 191.212 55.0099 187.649 56.2547C186.437 56.6616 185.473 56.7574 181.341 56.8771L176.493 56.9728L175.775 56.2547C175.355 55.7999 172.411 54.196 168.156 52.0894L161.23 48.6663H154.056H146.882L142.38 50.8686C139.882 52.0894 137.804 53.0948 137.729 53.0948C137.68 53.0948 138.002 52.3288 138.472 51.3713C138.942 50.4138 139.337 49.4802 139.337 49.2647C139.337 49.0732 137.903 43.9984 136.146 38.0138C134.415 32.0293 132.782 26.3559 132.535 25.4463L132.089 23.7706L133.969 17.9297C135.033 14.722 135.874 11.7776 135.874 11.3467C135.874 10.9398 135.652 10.1738 135.404 9.64712C134.786 8.33052 130.481 1.12514 130.011 0.598503C129.541 0.119736 128.478 0.0718613 127.909 0.478806C127.266 0.957573 125.089 8.8811 123.728 15.6077C123.06 18.9112 122.516 21.6401 122.516 21.688C122.516 21.7119 121.329 21.1374 119.869 20.3953L117.222 19.0548L114.353 19.1506L111.508 19.2463L109.183 20.515C107.921 21.1853 106.857 21.7359 106.833 21.688C106.808 21.6401 106.264 18.983 105.62 15.7513C104.334 9.45561 102.157 1.29271 101.539 0.598503C101.093 0.119736 99.6834 0.0479202 99.3124 0.478806ZM101.489 6.0564L102.528 9.64712L102.231 16.4695C102.083 20.2278 101.91 23.5552 101.836 23.8903C101.761 24.3212 101.316 24.7042 100.203 25.2787C99.3866 25.7096 98.6692 26.0447 98.6445 25.9969C98.595 25.949 98.6939 25.3745 98.8176 24.7281C99.065 23.6031 98.9661 23.244 97.185 17.7622C96.146 14.5784 95.3049 11.6579 95.3049 11.2749C95.3049 10.8919 95.7997 9.74287 96.4429 8.68959C99.535 3.54289 100.302 2.32204 100.376 2.39386C100.401 2.4178 100.92 4.06953 101.489 6.0564ZM131.421 6.27184C132.683 8.35446 133.796 10.4131 133.92 10.8201C134.118 11.4425 133.821 12.5436 132.263 17.4031C130.531 22.7652 130.382 23.3637 130.531 24.6563L130.679 26.0687L129.17 25.3027C128.329 24.8718 127.612 24.393 127.562 24.2733C127.513 24.1297 127.315 20.8262 127.092 16.9482L126.721 9.8865L127.736 6.41547C128.923 2.29811 128.923 2.25023 129.047 2.36992C129.096 2.4178 130.16 4.16528 131.421 6.27184ZM105.076 22.1428C105.175 22.5737 105.027 22.7652 104.433 23.0764L103.641 23.4594L103.79 21.2571C103.889 20.0363 103.963 18.6479 103.988 18.1691C104.012 17.5706 104.161 17.9776 104.482 19.4618C104.73 20.6347 105.002 21.8556 105.076 22.1428ZM125.484 20.6826C125.484 22.0471 125.386 23.1722 125.287 23.1722C125.163 23.1722 124.891 23.0285 124.643 22.861C124.198 22.5498 124.198 22.454 124.619 20.2278C124.866 18.9591 125.163 17.9776 125.287 18.0494C125.386 18.1212 125.484 19.2942 125.484 20.6826ZM124.223 24.6563C128.082 26.6911 131.347 28.5343 131.471 28.7737C131.842 29.42 137.358 48.4987 137.358 49.1451C137.358 49.4802 136.789 50.8447 136.097 52.2091L134.81 54.6508L133.499 64.7048C132.238 74.4477 132.114 75.0461 129.937 84.2144C128.131 91.7071 127.686 93.9094 127.81 94.7951C127.884 95.4414 127.884 95.9441 127.835 95.9441C127.785 95.9441 127.117 95.1302 126.375 94.1248C125.113 92.4492 124.99 92.1858 124.99 91.0607C125.014 90.3905 125.88 81.0307 126.919 70.2824C129.071 48.4508 128.799 49.9111 130.927 48.8339C131.644 48.4987 132.46 48.3072 133.301 48.3072C134.019 48.3072 134.761 48.2354 134.984 48.1636C135.429 47.996 135.528 46.9906 135.107 46.7512C134.613 46.44 131.941 46.5837 130.704 46.9906C129.294 47.4454 127.365 49.2647 127.117 50.3659C127.043 50.7489 126.078 60.2763 124.99 71.5272C123.604 85.6747 123.06 92.1619 123.233 92.5928C123.357 92.9519 124.544 94.6515 125.856 96.399L128.28 99.5588L125.361 105.591C123.778 108.919 122.269 111.815 122.021 112.078C121.625 112.461 121.23 112.509 118.533 112.438C114.625 112.366 114.6 112.366 110.815 112.461C108.342 112.509 107.575 112.461 107.303 112.198C106.882 111.767 101.242 100.085 101.242 99.6545C101.242 99.463 102.355 97.8592 103.716 96.0638C106.536 92.3295 106.412 92.8322 105.917 87.7812L105.62 84.9086L106.511 84.1187C107.006 83.6878 107.476 83.0175 107.55 82.6345C107.649 82.2515 107.748 81.7967 107.797 81.6531C107.871 81.4855 107.921 78.6847 107.946 75.4531C107.97 68.8222 108.02 69.0377 106.016 67.5774C103.468 65.7342 103.839 66.8832 102.974 58.0261C102.182 49.6717 102.108 49.4323 100.698 48.1396C100.376 47.8524 99.5845 47.3736 98.9413 47.1103C96.5913 46.1049 93.1775 46.5597 93.9691 47.7806C94.167 48.0918 94.7112 48.2115 96.0718 48.3072C98.1497 48.4508 99.535 49.0972 100.129 50.1983C100.45 50.8447 101.86 63.4361 101.687 64.25C101.638 64.5133 100.797 64.0825 98.6445 62.6462C97.0118 61.569 95.577 60.6114 95.4781 60.5157C95.3544 60.4199 95.107 59.1033 94.9091 57.6192C94.5876 55.1296 94.4391 54.6508 93.1528 52.0894L91.7428 49.2887L94.6618 39.2825C96.2697 33.7768 97.7292 29.061 97.9024 28.7737C98.1745 28.3667 110.147 21.8556 112.176 21.0177C112.473 20.898 113.759 20.8262 114.971 20.8502L117.197 20.9459L124.223 24.6563ZM167.587 53.8369C171.372 55.6802 174.563 57.3798 174.687 57.5952C174.811 57.8107 175.033 61.4971 175.207 65.7821C175.479 73.2986 175.528 73.6817 176.369 77.2724C176.938 79.7859 177.186 81.3658 177.136 82.1797C177.062 82.9936 175.503 87.1588 172.139 95.4654C169.443 102.096 167.167 107.746 167.068 108.009C166.821 108.655 163.085 99.6306 162.912 97.9789C162.838 97.0692 163.308 94.46 164.792 87.4461C166.92 77.5118 167.093 76.9133 167.835 75.6685C168.379 74.7828 170.111 73.6817 170.976 73.6817C171.842 73.6817 172.485 73.2268 172.485 72.6284C172.485 71.8863 172.015 71.7427 170.482 72.006C168.379 72.389 166.87 73.6098 165.683 75.8121C165.46 76.267 164.322 81.0546 163.159 86.4646C161.428 94.6275 161.081 96.5905 161.156 98.0267L161.23 99.7742H154.031H146.833L146.932 98.0267C147.031 96.5426 146.734 94.8909 144.903 86.3689C142.726 76.1473 142.529 75.5488 140.945 73.7295C139.758 72.3411 136.567 71.3836 135.775 72.1496C135.033 72.8438 135.429 73.3705 136.913 73.6338C138.744 73.9689 139.708 74.711 140.55 76.3867C141.465 78.2538 145.373 96.399 145.2 98.0267C145.101 98.8406 141.341 108.512 141.193 108.32C141.143 108.296 138.991 102.982 136.394 96.5186L131.644 84.765L132.856 79.6423C133.846 75.477 134.316 72.7481 135.28 65.1597L136.468 55.8238L141.811 53.1667L147.13 50.5095L153.932 50.4856L160.735 50.4617L167.587 53.8369ZM194.724 55.6562C193.784 57.5713 191.484 59.9172 189.777 60.7072L188.664 61.2338L187.08 60.6114C185.992 60.1805 185.275 60.0369 184.755 60.1327C184.335 60.2284 182.455 60.9944 180.575 61.8562C178.694 62.718 177.111 63.3882 177.087 63.3643C177.037 63.3164 176.938 62.2153 176.839 60.9226L176.691 58.6006H180.97C184.434 58.6006 185.646 58.5049 187.179 58.1219C189.529 57.5473 192.498 56.0632 194.131 54.6748C194.823 54.1003 195.392 53.7172 195.442 53.8369C195.491 53.9327 195.17 54.7705 194.724 55.6562ZM56.9621 69.66L53.6967 80.2646L51.693 82.1079C50.3077 83.3766 49.4667 83.9511 49.0461 83.9511C48.4524 83.9751 47.7845 83.8314 45.1871 83.1372L43.9255 82.7781L43.8018 76.626C43.7276 73.0832 43.7771 70.2585 43.9008 69.9712C44.0987 69.5404 59.9305 58.8161 60.1532 58.9836C60.1779 59.0076 58.7679 63.8191 56.9621 69.66ZM98.0013 64.3218C102.231 67.1226 105.843 69.66 105.991 69.9234C106.189 70.2824 106.214 72.1496 106.115 76.2909C105.942 81.9882 105.917 82.1797 105.398 82.6824C104.804 83.209 98.496 86.9194 98.3971 86.7998C98.2734 86.6322 97.1108 83.0415 93.5733 71.6469C91.5201 65.0639 89.7885 59.4863 89.7143 59.223C89.5164 58.6724 88.799 58.2176 98.0013 64.3218ZM62.7753 59.8933C63.7648 60.8029 64.6554 60.8029 69.2813 60.0369C71.656 59.63 74.204 59.3188 74.9956 59.3188C75.7624 59.3188 78.3351 59.6539 80.6852 60.0369C83.1342 60.4678 85.3111 60.7072 85.7068 60.6354C86.1026 60.5396 86.7458 60.2045 87.1416 59.8933L87.859 59.2948L88.0816 60.0848C88.2053 60.5157 89.6648 65.2315 91.347 70.5697L94.3402 80.2407L91.9159 88.2121C90.5801 92.5928 89.4174 96.0399 89.3432 95.8723C88.7495 94.843 82.1942 78.1342 82.1942 77.6554C82.1942 77.2963 82.3921 76.9372 82.6642 76.7936C83.2826 76.4824 85.5337 76.4824 86.6469 76.7936C87.9827 77.1766 88.8485 76.6739 88.4774 75.7164C88.1064 74.8067 83.1094 74.3998 81.8726 75.1898C80.9078 75.7882 80.3389 76.7457 80.3636 77.7511C80.3883 78.2778 81.9963 82.5627 84.2968 88.3079C86.449 93.6221 88.2053 98.0986 88.2301 98.2661C88.2548 98.4098 86.4984 99.7264 84.3463 101.187L80.4378 103.844L78.533 103.102C76.0593 102.168 75.614 101.737 75.9109 100.684C76.084 100.085 76.5788 99.6067 77.9888 98.6731C80.1162 97.2368 80.9573 96.0159 80.9573 94.3163C80.9573 93.0716 80.3883 91.8028 79.6462 91.3241C78.5825 90.6538 76.1088 89.9117 74.9708 89.9117C73.3877 89.9117 70.4934 91.0129 69.7018 91.9225C69.1823 92.521 69.0834 92.8561 69.0834 94.2206C69.0834 96.1596 69.5781 97.0453 71.2355 98.1704C73.4866 99.6545 74.0308 100.253 74.0308 101.091C74.0308 101.522 73.8824 101.977 73.734 102.096C73.0661 102.575 69.5039 103.82 69.2318 103.676C69.0834 103.58 67.3023 102.383 65.2491 100.995C63.2206 99.6306 61.5137 98.4816 61.489 98.4576C61.4643 98.4576 63.2206 94.0291 65.3975 88.643C69.875 77.6075 69.9986 77.1048 68.6628 75.8121C68.1681 75.3094 67.5249 74.9983 66.7333 74.8546C64.7296 74.4956 61.1674 75.2616 61.1674 76.0755C61.1674 76.5303 61.9837 77.0569 62.5032 76.9133C62.8001 76.8176 63.8143 76.6979 64.7791 76.626C66.857 76.4824 67.5991 76.7457 67.5991 77.6793C67.5991 78.0384 65.9665 82.3951 63.9627 87.3743L60.3016 96.4468L59.6832 95.1781C59.0647 93.9333 59.0647 93.8376 58.9411 85.8901C58.8668 81.4855 58.7184 77.7272 58.5947 77.5357C58.4463 77.3203 58.0753 77.2484 57.4073 77.3442C56.7147 77.4399 56.4673 77.3921 56.5415 77.2006C56.591 77.033 57.8526 72.9635 59.3121 68.1041C60.7964 63.2686 62.0332 59.3188 62.0827 59.3188C62.1074 59.3188 62.429 59.5821 62.7753 59.8933ZM190.173 63.7234C194.972 65.6384 195.59 66.0693 194.922 67.0268C194.7 67.338 192.721 69.3967 190.469 71.6469L186.413 75.7164L181.861 74.2083C179.387 73.3944 177.309 72.6763 177.284 72.6523C177.26 72.6284 177.186 71.0006 177.136 69.0377L177.012 65.4709L180.995 63.6037C183.197 62.5744 185.151 61.7844 185.349 61.8562C185.547 61.9041 187.724 62.7419 190.173 63.7234ZM22.1072 82.5866L25.2983 85.5071L22.1566 88.5712L18.9903 91.6353L18.8418 89.433C18.6192 86.5364 18.5697 79.6662 18.7676 79.6662C18.8418 79.6662 20.3508 80.9828 22.1072 82.5866ZM57.2094 85.8183V91.9943L53.8946 88.7866L50.5551 85.555L53.6967 82.6345C55.4284 81.0067 56.9126 79.6901 57.0363 79.6662C57.1352 79.6662 57.2094 82.443 57.2094 85.8183ZM43.3071 84.4538L47.8835 85.6747L51.2477 88.7627C57.6795 94.6515 57.3579 94.2206 59.7821 99.7264C60.9448 102.407 61.9095 104.753 61.9095 104.921C61.9095 105.089 59.5348 107.411 56.6652 110.044L51.3962 114.855H49.1203H46.8692L44.816 116.459C42.8371 117.991 42.7628 118.039 42.0207 117.752C41.6002 117.584 40.7344 117.273 40.0912 117.082L38.9038 116.722V114.855C38.9038 113.826 39.0028 112.892 39.1512 112.821C39.5223 112.581 40.8828 110.618 41.2786 109.709C41.6002 108.943 41.6002 108.847 41.1302 108.392C40.7096 107.985 40.3138 107.913 38.0133 107.913C35.119 107.913 34.4511 108.129 34.4511 109.014C34.4511 109.78 34.7479 110.331 35.9601 111.887C36.8754 113.06 36.9248 113.18 36.9248 114.903V116.699L35.0695 117.345C34.0306 117.704 33.0658 117.919 32.8926 117.8C32.7442 117.704 31.7795 117.01 30.79 116.244L28.9841 114.855H26.7083L24.4325 114.831L19.4108 110.235C16.6402 107.698 14.2654 105.448 14.1417 105.208C13.9439 104.897 14.3891 103.628 16.0465 99.87L18.2234 94.9627L22.9977 90.3665L27.7968 85.7704L32.299 84.5496C34.7727 83.8554 37.2217 83.3048 37.7412 83.2809C38.2606 83.2569 40.7591 83.8075 43.3071 84.4538ZM104.21 88.8584C104.532 92.2337 104.581 92.0422 102.677 94.4839L101.489 96.0159V94.436C101.489 93.5743 101.217 91.755 100.896 90.4144C100.549 89.0499 100.327 87.9009 100.376 87.8291C100.574 87.6376 103.592 85.914 103.74 85.8901C103.839 85.8901 104.037 87.2306 104.21 88.8584ZM77.6177 92.3773C78.8546 92.9519 78.8546 92.9519 78.9288 94.2445C79.0278 95.7526 78.8546 95.9681 76.554 97.524L74.9956 98.5773L73.165 97.3804C71.0624 96.0159 70.815 95.6808 70.815 94.1966C70.815 92.9758 70.9634 92.8082 72.6703 92.138C74.2535 91.5156 75.9851 91.6113 77.6177 92.3773ZM164.372 107.075C165.559 109.972 166.548 112.39 166.548 112.461C166.548 112.677 163.728 117.632 163.382 118.039C162.764 118.757 161.23 118.757 157.544 118.063L154.007 117.417L150.593 118.063C147.328 118.685 145.621 118.757 144.903 118.254C144.606 118.063 141.564 112.797 141.564 112.509C141.564 112.366 144.507 105.16 145.67 102.455L145.992 101.689L154.081 101.737L162.195 101.809L164.372 107.075ZM77.3704 104.586C78.5578 105.065 78.5825 105.089 78.1125 105.448C76.554 106.597 74.2782 106.812 72.695 105.926C72.1508 105.639 71.6808 105.28 71.6313 105.16C71.5818 105.017 72.1013 104.705 72.7692 104.466C73.4371 104.251 74.1793 103.916 74.4266 103.724C74.8224 103.461 74.9956 103.461 75.5151 103.748C75.8614 103.939 76.7025 104.299 77.3704 104.586ZM39.0028 110.116C38.7059 110.642 38.0875 111.265 37.8896 111.265C37.7906 111.265 37.4691 110.929 37.1722 110.546L36.6527 109.828H37.9143C38.8543 109.828 39.1265 109.9 39.0028 110.116ZM40.3633 118.997L41.2044 119.332L40.0417 120.002C38.5822 120.816 37.3454 120.864 35.9601 120.122C35.4159 119.81 34.9458 119.475 34.9458 119.38C34.9458 119.284 35.4159 119.044 36.0096 118.829C37.1969 118.398 39.1017 118.47 40.3633 118.997ZM156.406 119.595C157.569 119.834 158.484 120.122 158.459 120.241C158.385 120.505 150.717 120.696 149.752 120.481C148.886 120.265 149.232 120.098 151.508 119.643C154.081 119.116 153.908 119.116 156.406 119.595Z" fill="white"/>
    <path d="M105.202 98.3385C104.608 98.6976 104.732 101.498 105.4 103.27C106.043 104.922 107.898 107.315 108.814 107.722C109.482 108.01 110.15 107.794 110.347 107.244C110.397 107.1 109.877 106.382 109.185 105.688C107.478 103.94 106.686 102.24 106.686 100.23C106.686 98.3146 106.216 97.7161 105.202 98.3385Z" fill="white"/>
    <path d="M122.889 98.3875C122.84 98.5551 122.766 99.4168 122.691 100.279C122.543 102.313 121.677 104.157 120.168 105.736C118.931 107.029 118.783 107.747 119.772 107.867C120.861 108.035 123.013 105.545 123.978 103.055C124.547 101.523 124.695 98.8662 124.2 98.3875C123.805 98.0045 123.013 98.0284 122.889 98.3875Z" fill="white"/>
    <path d="M22.8989 100.828C21.3899 101.499 22.0825 102.648 23.8636 102.432C26.2384 102.097 29.2069 102.863 30.6664 104.132C31.4085 104.802 32.1012 104.611 32.1012 103.725C32.1012 102.839 30.5427 101.618 28.6874 101.092C26.7579 100.541 23.8636 100.397 22.8989 100.828Z" fill="white"/>
    <path d="M48.104 100.85C45.4819 101.424 43.4287 102.885 43.6513 104.01C43.775 104.632 44.7892 104.704 45.3582 104.105C46.5456 102.885 49.5388 102.095 51.8888 102.406C52.4331 102.478 53.0762 102.454 53.3236 102.358C53.8431 102.095 53.8678 101.377 53.3731 100.97C52.8041 100.515 49.8851 100.443 48.104 100.85Z" fill="white"/>
    <path d="M146.563 104.849C146.043 105.351 146.241 105.758 147.651 107.194L149.037 108.607L147.627 111.599C146.86 113.251 146.266 114.783 146.316 115.022C146.365 115.309 146.612 115.453 147.107 115.453C147.775 115.453 147.899 115.286 149.259 112.365C150.076 110.665 150.719 109.014 150.719 108.703C150.719 107.817 150.15 106.931 148.765 105.686C147.478 104.513 147.058 104.37 146.563 104.849Z" fill="white"/>
    <path d="M159.351 105.686C157.916 106.979 157.397 107.841 157.422 108.798C157.422 109.157 158.065 110.809 158.857 112.461C160.217 115.286 160.341 115.453 161.009 115.453C161.479 115.453 161.751 115.309 161.8 115.022C161.85 114.807 161.256 113.275 160.464 111.623L159.054 108.631L160.464 107.218C161.874 105.758 162.072 105.351 161.553 104.849C161.058 104.37 160.638 104.513 159.351 105.686Z" fill="white"/>
    <path d="M10.929 138.133C12.0269 138.133 13.1047 138.256 14.1593 138.506C15.2138 138.757 16.3484 139.18 17.5698 139.781V143.3C16.3784 142.616 15.2772 142.123 14.2627 141.819C13.2516 141.515 12.1937 141.362 11.0958 141.362C9.7176 141.362 8.4762 141.645 7.36829 142.216C6.26038 142.783 5.39607 143.584 4.78205 144.621C4.16802 145.655 3.86101 146.806 3.86101 148.07C3.86101 149.335 4.16468 150.522 4.77537 151.55C5.38606 152.574 6.24369 153.368 7.35494 153.925C8.46285 154.485 9.71092 154.762 11.0992 154.762C12.1603 154.762 13.1748 154.609 14.1426 154.305C15.107 153.998 16.325 153.451 17.7967 152.657V156.176C16.5386 156.834 15.384 157.301 14.3328 157.578C13.2783 157.854 12.0502 157.995 10.6453 157.995C8.60301 157.995 6.77762 157.588 5.16915 156.777C3.56067 155.963 2.29592 154.792 1.37822 153.264C0.457181 151.736 0 150.062 0 148.24C0 146.292 0.473866 144.541 1.4216 142.99C2.36933 141.439 3.6708 140.241 5.32933 139.4C6.98786 138.56 8.85663 138.139 10.9356 138.139L10.929 138.133Z" fill="white"/>
    <path d="M25.0977 138.383V154.819H34.495V157.741H21.3535V138.383H25.0977Z" fill="white"/>
    <path d="M40.8858 138.383V157.741H37.1416V138.383H40.8858Z" fill="white"/>
    <path d="M48.5249 138.383L60.0312 151.893V138.383H63.692V157.741H60.475L48.902 144.01V157.741H45.2412V138.383H48.5282H48.5249Z" fill="white"/>
    <path d="M71.7706 138.383V157.741H68.0264V138.383H71.7706Z" fill="white"/>
    <path d="M86.2839 138.133C87.3818 138.133 88.4596 138.256 89.5142 138.506C90.5687 138.757 91.7033 139.18 92.9247 139.781V143.3C91.7333 142.616 90.6321 142.123 89.6176 141.819C88.6065 141.515 87.5486 141.362 86.4507 141.362C85.0725 141.362 83.8311 141.645 82.7232 142.216C81.6153 142.783 80.751 143.584 80.1369 144.621C79.5229 145.655 79.2159 146.806 79.2159 148.07C79.2159 149.335 79.5196 150.522 80.1303 151.55C80.741 152.574 81.5986 153.368 82.7098 153.925C83.8177 154.485 85.0658 154.762 86.454 154.762C87.5152 154.762 88.5297 154.609 89.4975 154.305C90.4619 153.998 91.6799 153.451 93.1482 152.657V156.176C91.8935 156.834 90.7355 157.301 89.6843 157.578C88.6298 157.854 87.4018 157.995 85.9969 157.995C83.9546 157.995 82.1292 157.588 80.5207 156.777C78.9122 155.963 77.6475 154.792 76.7298 153.264C75.8087 151.736 75.3516 150.062 75.3516 148.24C75.3516 146.292 75.8254 144.541 76.7732 142.99C77.7209 141.439 79.0224 140.241 80.6809 139.4C82.3394 138.56 84.2082 138.139 86.2872 138.139L86.2839 138.133Z" fill="white"/>
    <path d="M106.523 138.383L115.076 157.741H111.125L109.116 153.031H100.509L98.6373 157.741H94.7129L102.699 138.383H106.523ZM101.644 150.188H107.894L104.624 142.526L101.644 150.188Z" fill="white"/>
    <path d="M126.526 138.242L135.479 157.74H133.907L130.844 151.049H121.373L118.32 157.74H116.748L125.701 138.242H126.522H126.526ZM130.273 149.798L126.102 140.681L121.944 149.798H130.277H130.273Z" fill="white"/>
    <path d="M139.317 138.383V156.493H148.894V157.741H137.818V138.383H139.313H139.317Z" fill="white"/>
    <path d="M151.113 138.383H156.449C158.492 138.383 160.057 138.84 161.141 139.754C162.226 140.668 162.77 141.915 162.77 143.497C162.77 145.078 162.222 146.362 161.128 147.293C160.033 148.227 158.428 148.694 156.312 148.694H152.612V157.741H151.113V138.383ZM152.612 139.63V147.446H156.216C157.834 147.446 159.062 147.106 159.903 146.422C160.744 145.738 161.165 144.774 161.165 143.527C161.165 142.279 160.754 141.388 159.93 140.685C159.109 139.984 157.928 139.63 156.396 139.63H152.612Z" fill="white"/>
    <path d="M167.085 138.383V157.741H165.587V138.383H167.085Z" fill="white"/>
    <path d="M188.942 138.383V157.741H187.711L172.988 140.821V157.741H171.489V138.383H172.757L187.444 155.302V138.383H188.942Z" fill="white"/>
    <path d="M201.046 138.242L210 157.74H208.428L205.364 151.049H195.894L192.84 157.74H191.269L200.222 138.242H201.046ZM204.794 149.798L200.619 140.681L196.461 149.798H204.794Z" fill="white"/>
</svg>
