<svg width="217" height="36" viewBox="0 0 217 36" fill="none" xmlns="http://www.w3.org/2000/svg">
    <path d="M8.26168 11.9766C9.08869 11.9766 9.90061 12.0695 10.6949 12.258C11.4893 12.4465 12.3439 12.7656 13.264 13.2179V15.8689C12.3666 15.3537 11.537 14.9819 10.7729 14.7532C10.0112 14.5245 9.21437 14.4089 8.38736 14.4089C7.3492 14.4089 6.41411 14.6225 5.57956 15.0522C4.74501 15.4794 4.09396 16.0824 3.63144 16.8639C3.16891 17.6429 2.93765 18.5098 2.93765 19.4621C2.93765 20.4145 3.1664 21.309 3.62641 22.083C4.08642 22.8544 4.73244 23.4524 5.5695 23.8721C6.40405 24.2942 7.34418 24.5028 8.38988 24.5028C9.18924 24.5028 9.9534 24.3872 10.6824 24.1585C11.4088 23.9274 12.3263 23.5153 13.4349 22.9172V25.5682C12.4872 26.0632 11.6175 26.415 10.8257 26.6236C10.0313 26.8321 9.10628 26.9377 8.04801 26.9377C6.50963 26.9377 5.13463 26.6311 3.92303 26.0205C2.71142 25.4074 1.75873 24.5254 1.06746 23.3745C0.373674 22.2237 0.0292969 20.9623 0.0292969 19.5903C0.0292969 18.1228 0.386243 16.8036 1.10014 15.6352C1.81403 14.4667 2.79437 13.5646 4.04368 12.9314C5.29299 12.2982 6.70067 11.9816 8.26671 11.9816L8.26168 11.9766Z" fill="#132F55"/>
    <path d="M18.9346 12.165V24.5455H26.0132V26.7467H16.1143V12.165H18.9346Z" fill="#132F55"/>
    <path d="M30.8272 12.165V26.7467H28.0068V12.165H30.8272Z" fill="#132F55"/>
    <path d="M36.5809 12.165L45.2482 22.3418V12.165H48.0057V26.7467H45.5825L36.865 16.4041V26.7467H34.1074V12.165H36.5834H36.5809Z" fill="#132F55"/>
    <path d="M54.0919 12.165V26.7467H51.2715V12.165H54.0919Z" fill="#132F55"/>
    <path d="M65.024 11.9766C65.851 11.9766 66.6629 12.0695 67.4572 12.258C68.2516 12.4465 69.1062 12.7656 70.0262 13.2179V15.8689C69.1288 15.3537 68.2993 14.9819 67.5351 14.7532C66.7735 14.5245 65.9766 14.4089 65.1496 14.4089C64.1115 14.4089 63.1764 14.6225 62.3418 15.0522C61.5073 15.4794 60.8562 16.0824 60.3937 16.8639C59.9312 17.6429 59.6999 18.5098 59.6999 19.4621C59.6999 20.4145 59.9287 21.309 60.3887 22.083C60.8487 22.8544 61.4947 23.4524 62.3318 23.8721C63.1663 24.2942 64.1065 24.5028 65.1522 24.5028C65.9515 24.5028 66.7157 24.3872 67.4447 24.1585C68.1711 23.9274 69.0886 23.5153 70.1946 22.9172V25.5682C69.2495 26.0632 68.3772 26.415 67.5854 26.6236C66.7911 26.8321 65.866 26.9377 64.8078 26.9377C63.2694 26.9377 61.8944 26.6311 60.6828 26.0205C59.4712 25.4074 58.5185 24.5254 57.8272 23.3745C57.1334 22.2237 56.7891 20.9623 56.7891 19.5903C56.7891 18.1228 57.146 16.8036 57.8599 15.6352C58.5738 14.4667 59.5541 13.5646 60.8034 12.9314C62.0528 12.2982 63.4604 11.9816 65.0265 11.9816L65.024 11.9766Z" fill="#132F55"/>
    <path d="M80.269 12.165L86.7117 26.7467H83.7354L82.2222 23.1987H75.7393L74.3292 26.7467H71.373L77.3883 12.165H80.269ZM76.594 21.0578H81.3022L78.8388 15.2859L76.594 21.0578Z" fill="#132F55"/>
    <path d="M95.3359 12.0596L102.08 26.7468H100.896L98.5886 21.7061H91.4547L89.1547 26.7468H87.9707L94.715 12.0596H95.3333H95.3359ZM98.1587 20.7638L95.0166 13.8964L91.8845 20.7638H98.1613H98.1587Z" fill="#132F55"/>
    <path d="M104.97 12.165V25.8069H112.185V26.7467H103.842V12.165H104.968H104.97Z" fill="#132F55"/>
    <path d="M113.856 12.165H117.876C119.414 12.165 120.593 12.5093 121.41 13.1978C122.227 13.8863 122.637 14.8261 122.637 16.0171C122.637 17.2082 122.225 18.1756 121.4 18.8767C120.576 19.5803 119.366 19.932 117.773 19.932H114.985V26.7467H113.856V12.165ZM114.985 13.1048V18.9923H117.7C118.919 18.9923 119.844 18.736 120.478 18.2208C121.111 17.7057 121.428 16.9795 121.428 16.0397C121.428 15.1 121.119 14.4291 120.498 13.8989C119.879 13.3712 118.989 13.1048 117.836 13.1048H114.985Z" fill="#132F55"/>
    <path d="M125.887 12.165V26.7467H124.759V12.165H125.887Z" fill="#132F55"/>
    <path d="M142.352 12.165V26.7467H141.424L130.334 14.0019V26.7467H129.205V12.165H130.16L141.223 24.9099V12.165H142.352Z" fill="#132F55"/>
    <path d="M151.47 12.0596L158.214 26.7468H157.03L154.722 21.7061H147.588L145.288 26.7468H144.104L150.849 12.0596H151.47ZM154.293 20.7638L151.148 13.8964L148.016 20.7638H154.293Z" fill="#132F55"/>
    <path d="M187.649 0.0839119C187.613 0.133244 187.212 0.788639 186.768 1.5427C186.025 2.79711 185.96 2.93806 185.96 3.26928C185.96 3.51593 186.127 4.13609 186.506 5.29889L187.045 6.96205L186.906 7.44831C186.833 7.70905 186.36 9.34402 185.858 11.0706C185.348 12.7972 184.94 14.3123 184.94 14.4321C184.94 14.566 185.1 14.9748 185.333 15.4188C185.632 15.9966 185.734 16.2785 185.77 16.6309C185.799 16.8846 185.843 17.1453 185.865 17.2158C185.887 17.3074 185.727 17.2299 185.297 16.9551C184.561 16.4759 184.365 16.4547 184.022 16.8141C183.884 16.948 183.775 17.089 183.775 17.1172C183.775 17.1453 183.702 17.2017 183.615 17.244C183.498 17.2933 183.127 17.2581 182.282 17.1172C180.439 16.8141 180.476 16.8141 178.917 17.0749C178.153 17.2017 177.461 17.2863 177.381 17.2581C177.301 17.2299 177.17 17.096 177.082 16.9621C176.886 16.652 176.551 16.5111 176.274 16.6098C176.165 16.652 174.941 17.4343 173.557 18.3504C171.715 19.5696 171.001 20.0841 170.877 20.2673C170.724 20.5139 170.724 20.5421 170.775 22.3462C170.805 23.354 170.797 24.1715 170.768 24.1715C170.732 24.1715 170.542 24.1221 170.346 24.0658C169.741 23.8896 169.29 23.9319 167.862 24.3124C167.134 24.5097 166.45 24.6648 166.34 24.6648C166.195 24.6648 165.896 24.4322 165.059 23.6782C163.937 22.6563 163.755 22.5576 163.5 22.8043C163.398 22.8959 163.384 23.213 163.384 25.2074V27.4978L162.692 29.0552C162.313 29.915 162 30.6902 162 30.7818C162 31.0989 162.24 31.3667 163.799 32.7973L165.386 34.2491H166.056H166.719L167.651 34.9608C169.501 36.3703 169.705 36.3632 171.679 34.834L172.429 34.2491H173.106H173.776L175.334 32.8255C176.194 32.0433 176.951 31.3244 177.017 31.2258C177.177 31.0003 177.184 30.662 177.031 30.3167C176.762 29.7036 176.747 29.7036 177.461 30.1898C177.825 30.4435 178.502 30.8946 178.954 31.1976L179.784 31.7473L180.345 31.7684C180.738 31.7896 180.986 31.7614 181.175 31.6839C181.444 31.5781 184.445 29.5838 184.78 29.2878C185.057 29.0482 185.137 28.8438 185.785 26.7226C186.12 25.6091 186.418 24.6507 186.44 24.5943C186.462 24.5309 186.564 24.7493 186.681 25.1017C186.884 25.743 187.045 25.9826 187.292 26.0179C187.416 26.039 187.467 26.1518 187.62 26.779C187.787 27.4837 187.787 27.5612 187.715 28.4139C187.613 29.4569 187.525 29.1821 188.72 31.6416C189.448 33.1356 189.717 33.5373 190.023 33.5514C190.089 33.5514 191.05 33.5655 192.15 33.5725C193.949 33.5866 194.182 33.5796 194.451 33.4598C194.808 33.3047 194.808 33.3047 195.864 31.113L196.679 29.4217L196.614 28.5055C196.548 27.6528 196.556 27.533 196.723 26.779C196.818 26.335 196.92 25.9474 196.949 25.9192C196.971 25.891 197.59 27.3568 198.325 29.168C199.629 32.3956 199.651 32.4732 199.607 32.8537C199.563 33.2413 199.563 33.2554 200.088 34.1786C200.379 34.686 200.685 35.1441 200.772 35.2004C200.852 35.2498 201.071 35.3132 201.253 35.3414C201.464 35.3766 201.712 35.4964 201.974 35.6867L202.367 35.9756H203.765H205.164L205.557 35.6867C205.819 35.4964 206.067 35.3766 206.278 35.3414C206.46 35.3132 206.678 35.2498 206.759 35.2004C206.846 35.1441 207.152 34.686 207.443 34.1715C207.916 33.3259 207.96 33.2131 207.924 32.9524C207.902 32.7973 207.88 32.6141 207.873 32.5577C207.873 32.5013 208.594 30.662 209.482 28.4703C211.325 23.9319 211.252 24.1997 210.91 22.8184C210.808 22.4026 210.72 22.0291 210.72 21.9939C210.72 21.9586 211.288 22.1137 211.987 22.3462C213.153 22.7338 213.269 22.762 213.473 22.6775C213.735 22.5647 216.153 20.1404 216.306 19.8304C216.452 19.5414 216.386 19.1679 216.153 18.9424C216.051 18.8508 215.782 18.7028 215.549 18.6041C215.316 18.5125 215.017 18.3927 214.886 18.3434L214.638 18.2447L215.039 17.9699C215.803 17.4343 216.401 16.4336 216.648 15.2778C216.794 14.6083 216.794 14.552 216.648 14.4181C216.459 14.2278 216.342 14.2912 216.022 14.7422C215.432 15.5949 214.704 16.1376 213.655 16.504C213.298 16.6238 213.014 16.652 211.798 16.6873L210.371 16.7155L210.159 16.504C210.036 16.3701 209.169 15.898 207.916 15.2778L205.877 14.2701H203.765H201.653L200.328 14.9184C199.592 15.2778 198.981 15.5738 198.959 15.5738C198.944 15.5738 199.039 15.3483 199.177 15.0664C199.316 14.7845 199.432 14.5097 199.432 14.4462C199.432 14.3899 199.01 12.8958 198.493 11.134C197.983 9.37221 197.502 7.70201 197.43 7.43421L197.298 6.9409L197.852 5.22137C198.165 4.27704 198.413 3.41022 198.413 3.28337C198.413 3.16357 198.347 2.93806 198.274 2.78302C198.092 2.39542 196.825 0.274189 196.687 0.119148C196.548 -0.0217972 196.235 -0.0358925 196.068 0.0839119C195.878 0.224857 195.238 2.5575 194.837 4.53778C194.64 5.51031 194.48 6.3137 194.48 6.32779C194.48 6.33484 194.131 6.1657 193.701 5.94724L192.922 5.55259L192.077 5.58078L191.239 5.60897L190.555 5.98248C190.183 6.1798 189.87 6.34189 189.863 6.32779C189.856 6.3137 189.696 5.53145 189.506 4.58007C189.127 2.72664 188.487 0.323521 188.305 0.119148C188.173 -0.0217972 187.758 -0.0429382 187.649 0.0839119ZM188.29 1.72593L188.596 2.78302L188.508 4.79149C188.465 5.89791 188.414 6.87748 188.392 6.97614C188.37 7.10299 188.239 7.21575 187.911 7.38488C187.671 7.51173 187.46 7.61039 187.452 7.5963C187.438 7.5822 187.467 7.41307 187.503 7.22279C187.576 6.89157 187.547 6.78586 187.023 5.17204C186.717 4.23475 186.469 3.37498 186.469 3.26223C186.469 3.14948 186.615 2.81121 186.804 2.50113C187.715 0.985962 187.94 0.626553 187.962 0.647694C187.97 0.654739 188.122 1.141 188.29 1.72593ZM197.102 1.78935C197.473 2.40246 197.801 3.00853 197.837 3.12833C197.896 3.31156 197.808 3.63573 197.349 5.06633C196.84 6.64492 196.796 6.8211 196.84 7.20165L196.883 7.61744L196.439 7.39193C196.192 7.26508 195.98 7.12413 195.966 7.0889C195.951 7.04661 195.893 6.07409 195.827 4.93243L195.718 2.85349L196.017 1.83163C196.366 0.619503 196.366 0.605412 196.403 0.640648C196.417 0.654739 196.73 1.16919 197.102 1.78935ZM189.346 6.46169C189.375 6.58854 189.331 6.64492 189.157 6.73653L188.924 6.84929L188.967 6.20094C188.996 5.84153 189.018 5.43279 189.026 5.29184C189.033 5.11566 189.076 5.23546 189.171 5.6724C189.244 6.01771 189.324 6.37712 189.346 6.46169ZM195.354 6.03181C195.354 6.4335 195.325 6.76472 195.296 6.76472C195.259 6.76472 195.179 6.72244 195.106 6.67311C194.975 6.58149 194.975 6.5533 195.099 5.89791C195.172 5.5244 195.259 5.23546 195.296 5.25661C195.325 5.27775 195.354 5.62306 195.354 6.03181ZM194.983 7.20165C196.119 7.80067 197.08 8.34331 197.116 8.41378C197.226 8.60406 198.85 14.2207 198.85 14.411C198.85 14.5097 198.682 14.9114 198.478 15.3131L198.1 16.0319L197.714 18.9917C197.342 21.86 197.306 22.0361 196.665 24.7353C196.133 26.941 196.002 27.5894 196.039 27.8501C196.06 28.0404 196.06 28.1884 196.046 28.1884C196.031 28.1884 195.835 27.9488 195.616 27.6528C195.245 27.1595 195.208 27.082 195.208 26.7508C195.216 26.5534 195.471 23.798 195.776 20.6337C196.41 14.2066 196.33 14.6365 196.956 14.3194C197.167 14.2207 197.408 14.1644 197.655 14.1644C197.867 14.1644 198.085 14.1432 198.151 14.1221C198.282 14.0727 198.311 13.7768 198.187 13.7063C198.041 13.6147 197.255 13.6569 196.891 13.7768C196.476 13.9106 195.908 14.4462 195.835 14.7704C195.813 14.8832 195.529 17.688 195.208 21.0002C194.801 25.1651 194.64 27.0749 194.691 27.2018C194.728 27.3075 195.077 27.8079 195.463 28.3223L196.177 29.2526L195.318 31.0285C194.852 32.008 194.407 32.8608 194.334 32.9383C194.218 33.051 194.101 33.0651 193.308 33.044C192.157 33.0228 192.15 33.0228 191.036 33.051C190.307 33.0651 190.081 33.051 190.001 32.9735C189.878 32.8467 188.217 29.4076 188.217 29.2807C188.217 29.2244 188.545 28.7522 188.945 28.2236C189.776 27.1243 189.739 27.2723 189.594 25.7853L189.506 24.9396L189.768 24.7071C189.914 24.5802 190.052 24.3829 190.074 24.2701C190.103 24.1574 190.132 24.0235 190.147 23.9812C190.169 23.9319 190.183 23.1073 190.191 22.156C190.198 20.2039 190.213 20.2673 189.623 19.8374C188.873 19.2948 188.982 19.633 188.727 17.0255C188.494 14.566 188.472 14.4956 188.057 14.115C187.962 14.0305 187.729 13.8895 187.54 13.812C186.848 13.516 185.843 13.6499 186.076 14.0093C186.134 14.1009 186.295 14.1362 186.695 14.1644C187.307 14.2066 187.715 14.3969 187.889 14.7211C187.984 14.9114 188.399 18.6182 188.348 18.8578C188.334 18.9354 188.086 18.8085 187.452 18.3857C186.972 18.0685 186.549 17.7866 186.52 17.7585C186.484 17.7303 186.411 17.3427 186.353 16.9057C186.258 16.1728 186.214 16.0319 185.836 15.2778L185.421 14.4533L186.28 11.5075C186.753 9.88666 187.183 8.49835 187.234 8.41378C187.314 8.29398 190.839 6.37712 191.436 6.13047C191.523 6.09523 191.902 6.07409 192.259 6.08114L192.914 6.10933L194.983 7.20165ZM207.749 15.7923C208.863 16.3349 209.803 16.8353 209.839 16.8987C209.875 16.9621 209.941 18.0474 209.992 19.3089C210.072 21.5217 210.087 21.6345 210.334 22.6915C210.502 23.4315 210.575 23.8966 210.56 24.1362C210.538 24.3758 210.079 25.6021 209.089 28.0475C208.295 29.9996 207.625 31.6627 207.596 31.7402C207.523 31.9305 206.424 29.2737 206.373 28.7874C206.351 28.5196 206.489 27.7515 206.926 25.6866C207.552 22.762 207.603 22.5858 207.822 22.2194C207.982 21.9586 208.492 21.6345 208.747 21.6345C209.002 21.6345 209.191 21.5006 209.191 21.3244C209.191 21.1059 209.053 21.0636 208.601 21.1411C207.982 21.2539 207.538 21.6133 207.188 22.2617C207.123 22.3956 206.788 23.805 206.445 25.3977C205.936 27.8008 205.834 28.3787 205.855 28.8015L205.877 29.316H203.758H201.639L201.668 28.8015C201.697 28.3646 201.61 27.8783 201.071 25.3695C200.43 22.3603 200.372 22.1841 199.906 21.6485C199.556 21.2398 198.617 20.9579 198.384 21.1834C198.165 21.3878 198.282 21.5428 198.719 21.6204C199.257 21.719 199.542 21.9375 199.789 22.4308C200.059 22.9805 201.209 28.3223 201.158 28.8015C201.129 29.0411 200.022 31.8882 199.978 31.8319C199.964 31.8248 199.33 30.2603 198.566 28.3575L197.167 24.8973L197.524 23.3892C197.816 22.163 197.954 21.3596 198.238 19.1256L198.588 16.3772L200.161 15.5949L201.726 14.8127L203.729 14.8057L205.732 14.7986L207.749 15.7923ZM215.738 16.3279C215.461 16.8916 214.784 17.5823 214.281 17.8148L213.954 17.9699L213.488 17.7866C213.167 17.6598 212.956 17.6175 212.803 17.6457C212.679 17.6739 212.126 17.8994 211.572 18.1531C211.019 18.4068 210.553 18.6041 210.545 18.5971C210.531 18.583 210.502 18.2588 210.473 17.8783L210.429 17.1947H211.689C212.708 17.1947 213.065 17.1665 213.517 17.0537C214.209 16.8846 215.082 16.4477 215.563 16.0389C215.767 15.8698 215.935 15.757 215.949 15.7923C215.964 15.8205 215.869 16.0671 215.738 16.3279ZM175.181 20.4505L174.22 23.5725L173.63 24.1151C173.222 24.4886 172.975 24.6577 172.851 24.6577C172.676 24.6648 172.48 24.6225 171.715 24.4181L171.344 24.3124L171.307 22.5013C171.285 21.4583 171.3 20.6267 171.336 20.5421C171.394 20.4153 176.055 17.2581 176.121 17.3074C176.128 17.3145 175.713 18.731 175.181 20.4505ZM187.263 18.879C188.508 19.7035 189.572 20.4505 189.615 20.528C189.674 20.6337 189.681 21.1834 189.652 22.4026C189.601 24.0799 189.594 24.1362 189.441 24.2842C189.266 24.4393 187.409 25.5316 187.38 25.4964C187.343 25.447 187.001 24.3899 185.96 21.0354C185.355 19.0974 184.845 17.4554 184.823 17.3779C184.765 17.2158 184.554 17.0819 187.263 18.879ZM176.893 17.5752C177.184 17.843 177.446 17.843 178.808 17.6175C179.507 17.4977 180.257 17.4061 180.49 17.4061C180.716 17.4061 181.474 17.5048 182.165 17.6175C182.886 17.7444 183.527 17.8148 183.644 17.7937C183.76 17.7655 183.95 17.6668 184.066 17.5752L184.277 17.399L184.343 17.6316C184.379 17.7585 184.809 19.1468 185.304 20.7183L186.185 23.5654L185.472 25.9121C185.078 27.2018 184.736 28.2166 184.714 28.1673C184.539 27.8642 182.61 22.9452 182.61 22.8043C182.61 22.6986 182.668 22.5929 182.748 22.5506C182.93 22.459 183.593 22.459 183.92 22.5506C184.314 22.6634 184.569 22.5154 184.459 22.2335C184.35 21.9657 182.879 21.8459 182.515 22.0784C182.231 22.2546 182.063 22.5365 182.071 22.8325C182.078 22.9875 182.551 24.249 183.229 25.9403C183.862 27.5048 184.379 28.8227 184.387 28.872C184.394 28.9143 183.877 29.3019 183.243 29.7318L182.093 30.514L181.532 30.2955C180.804 30.0207 180.672 29.8939 180.76 29.5838C180.811 29.4076 180.956 29.2666 181.372 28.9918C181.998 28.569 182.245 28.2096 182.245 27.7092C182.245 27.3427 182.078 26.9692 181.859 26.8283C181.546 26.631 180.818 26.4125 180.483 26.4125C180.017 26.4125 179.165 26.7367 178.932 27.0045C178.779 27.1807 178.75 27.2793 178.75 27.681C178.75 28.2518 178.896 28.5126 179.383 28.8438C180.046 29.2807 180.206 29.4569 180.206 29.7036C180.206 29.8304 180.163 29.9643 180.119 29.9996C179.922 30.1405 178.874 30.507 178.794 30.4647C178.75 30.4365 178.226 30.0841 177.621 29.6754C177.024 29.2737 176.521 28.9354 176.514 28.9284C176.507 28.9284 177.024 27.6246 177.665 26.039C178.983 22.7902 179.019 22.6422 178.626 22.2617C178.48 22.1137 178.291 22.0221 178.058 21.9798C177.468 21.8741 176.419 22.0996 176.419 22.3392C176.419 22.4731 176.66 22.6281 176.813 22.5858C176.9 22.5576 177.199 22.5224 177.483 22.5013C178.094 22.459 178.313 22.5365 178.313 22.8113C178.313 22.9171 177.832 24.1997 177.242 25.6655L176.165 28.3364L175.982 27.9629C175.8 27.5964 175.8 27.5683 175.764 25.2286C175.742 23.9319 175.698 22.8254 175.662 22.7691C175.618 22.7056 175.509 22.6845 175.312 22.7127C175.109 22.7409 175.036 22.7268 175.058 22.6704C175.072 22.6211 175.444 21.423 175.873 19.9924C176.31 18.5689 176.674 17.4061 176.689 17.4061C176.696 17.4061 176.791 17.4836 176.893 17.5752ZM214.398 18.7028C215.811 19.2666 215.993 19.3934 215.796 19.6753C215.731 19.7669 215.148 20.373 214.485 21.0354L213.291 22.2335L211.951 21.7895C211.223 21.5499 210.611 21.3385 210.604 21.3314C210.596 21.3244 210.575 20.8452 210.56 20.2673L210.524 19.2172L211.696 18.6676C212.344 18.3645 212.92 18.132 212.978 18.1531C213.036 18.1672 213.677 18.4139 214.398 18.7028ZM164.92 24.256L165.86 25.1158L164.935 26.0179L164.003 26.9199L163.959 26.2716C163.893 25.4188 163.879 23.3963 163.937 23.3963C163.959 23.3963 164.403 23.7839 164.92 24.256ZM175.254 25.2074V27.0256L174.278 26.0813L173.295 25.1299L174.22 24.2701C174.73 23.7909 175.167 23.4033 175.203 23.3963C175.232 23.3963 175.254 24.2138 175.254 25.2074ZM171.161 24.8057L172.509 25.1651L173.499 26.0742C175.393 27.8079 175.298 27.681 176.012 29.3019C176.354 30.0912 176.638 30.7818 176.638 30.8311C176.638 30.8805 175.939 31.5641 175.094 32.3393L173.543 33.7558H172.873H172.21L171.606 34.2279C171.023 34.6789 171.001 34.693 170.783 34.6085C170.659 34.5591 170.404 34.4675 170.215 34.4112L169.865 34.3054V33.7558C169.865 33.4527 169.894 33.1779 169.938 33.1567C170.047 33.0863 170.448 32.5084 170.564 32.2406C170.659 32.0151 170.659 31.9869 170.521 31.853C170.397 31.7332 170.28 31.712 169.603 31.712C168.751 31.712 168.554 31.7755 168.554 32.0362C168.554 32.2617 168.642 32.4238 168.999 32.8819C169.268 33.2272 169.283 33.2624 169.283 33.7698V34.2984L168.736 34.4887C168.43 34.5944 168.146 34.6578 168.095 34.6226C168.052 34.5944 167.768 34.39 167.476 34.1645L166.945 33.7558H166.275L165.605 33.7487L164.127 32.3956C163.311 31.6486 162.612 30.9862 162.575 30.9157C162.517 30.8241 162.648 30.4506 163.136 29.3442L163.777 27.8995L165.182 26.5464L166.595 25.1933L167.921 24.8339C168.649 24.6295 169.37 24.4675 169.523 24.4604C169.676 24.4534 170.411 24.6154 171.161 24.8057ZM189.091 26.1024C189.186 27.0961 189.2 27.0397 188.64 27.7585L188.29 28.2096V27.7444C188.29 27.4907 188.21 26.9551 188.115 26.5605C188.013 26.1588 187.948 25.8205 187.962 25.7994C188.021 25.743 188.909 25.2356 188.953 25.2286C188.982 25.2286 189.04 25.6232 189.091 26.1024ZM181.262 27.1384C181.626 27.3075 181.626 27.3075 181.648 27.6881C181.677 28.132 181.626 28.1955 180.949 28.6535L180.49 28.9636L179.951 28.6112C179.332 28.2096 179.26 28.1109 179.26 27.674C179.26 27.3146 179.303 27.2652 179.806 27.0679C180.272 26.8847 180.782 26.9129 181.262 27.1384ZM206.802 31.4654C207.152 32.3181 207.443 33.0299 207.443 33.051C207.443 33.1145 206.613 34.5732 206.511 34.693C206.329 34.9045 205.877 34.9045 204.792 34.7001L203.751 34.5098L202.746 34.7001C201.785 34.8833 201.282 34.9045 201.071 34.7565C200.983 34.7001 200.088 33.1497 200.088 33.0651C200.088 33.0228 200.954 30.9016 201.297 30.1053L201.391 29.8798L203.773 29.8939L206.161 29.915L206.802 31.4654ZM181.19 30.7325C181.539 30.8734 181.546 30.8805 181.408 30.9862C180.949 31.3244 180.279 31.3879 179.813 31.1271C179.653 31.0426 179.515 30.9368 179.5 30.9016C179.485 30.8593 179.638 30.7677 179.835 30.6972C180.032 30.6338 180.25 30.5352 180.323 30.4788C180.439 30.4013 180.49 30.4013 180.643 30.4858C180.745 30.5422 180.993 30.6479 181.19 30.7325ZM169.894 32.3604C169.807 32.5154 169.625 32.6987 169.567 32.6987C169.537 32.6987 169.443 32.6 169.355 32.4872L169.202 32.2758H169.574C169.851 32.2758 169.931 32.297 169.894 32.3604ZM170.295 34.9749L170.542 35.0736L170.2 35.2709C169.77 35.5105 169.406 35.5246 168.999 35.3062C168.838 35.2145 168.7 35.1159 168.7 35.0877C168.7 35.0595 168.838 34.989 169.013 34.9256C169.363 34.7987 169.923 34.8199 170.295 34.9749ZM204.457 35.1511C204.8 35.2216 205.069 35.3062 205.062 35.3414C205.04 35.4189 202.782 35.4753 202.498 35.4119C202.243 35.3484 202.345 35.2991 203.015 35.1652C203.773 35.0102 203.722 35.0102 204.457 35.1511Z" fill="#132F55"/>
    <path d="M189.383 28.8933C189.208 28.9991 189.245 29.8236 189.441 30.3451C189.631 30.8313 190.177 31.5361 190.446 31.6559C190.643 31.7404 190.839 31.677 190.898 31.5149C190.912 31.4726 190.759 31.2612 190.555 31.0569C190.053 30.5424 189.82 30.0421 189.82 29.4501C189.82 28.8863 189.681 28.7101 189.383 28.8933Z" fill="#132F55"/>
    <path d="M194.59 28.9081C194.576 28.9574 194.554 29.2111 194.532 29.4648C194.488 30.0638 194.233 30.6065 193.789 31.0716C193.425 31.4522 193.381 31.6636 193.673 31.6988C193.993 31.7481 194.627 31.0152 194.911 30.2823C195.078 29.8313 195.122 29.049 194.976 28.9081C194.86 28.7953 194.627 28.8024 194.59 28.9081Z" fill="#132F55"/>
    <path d="M165.153 29.6261C164.709 29.8234 164.912 30.1617 165.437 30.0983C166.136 29.9996 167.01 30.2251 167.44 30.5986C167.658 30.7959 167.862 30.7396 167.862 30.4788C167.862 30.2181 167.403 29.8586 166.857 29.7036C166.289 29.5415 165.437 29.4992 165.153 29.6261Z" fill="#132F55"/>
    <path d="M172.574 29.6331C171.802 29.8023 171.197 30.2322 171.263 30.5634C171.299 30.7466 171.598 30.7678 171.765 30.5916C172.115 30.2322 172.996 29.9996 173.688 30.0912C173.848 30.1124 174.037 30.1053 174.11 30.0771C174.263 29.9996 174.27 29.7882 174.125 29.6684C173.957 29.5345 173.098 29.5133 172.574 29.6331Z" fill="#132F55"/>
    <path d="M201.56 30.8097C201.407 30.9577 201.465 31.0775 201.88 31.5003L202.288 31.9161L201.873 32.797C201.647 33.2833 201.472 33.7343 201.487 33.8048C201.501 33.8894 201.574 33.9316 201.72 33.9316C201.916 33.9316 201.953 33.8823 202.353 33.0225C202.594 32.5222 202.783 32.0359 202.783 31.9443C202.783 31.6836 202.616 31.4228 202.208 31.0564C201.829 30.711 201.705 30.6688 201.56 30.8097Z" fill="#132F55"/>
    <path d="M205.324 31.0564C204.902 31.4369 204.749 31.6906 204.756 31.9725C204.756 32.0782 204.945 32.5645 205.178 33.0507C205.579 33.8823 205.615 33.9316 205.812 33.9316C205.95 33.9316 206.031 33.8894 206.045 33.8048C206.06 33.7414 205.885 33.2903 205.652 32.8041L205.237 31.9232L205.652 31.5074C206.067 31.0775 206.125 30.9577 205.972 30.8097C205.827 30.6688 205.703 30.711 205.324 31.0564Z" fill="#132F55"/>
</svg>
